<mxfile host="app.diagrams.net" agent="Mozilla/5.0 (Windows NT 10.0; Win64; x64) AppleWebKit/537.36 (KHTML, like Gecko) Chrome/129.0.0.0 Safari/537.36" version="24.7.17">
  <diagram name="Página-1" id="6xFUSRFaPUEdKZYTTJDu">
    <mxGraphModel grid="1" page="1" gridSize="10" guides="1" tooltips="1" connect="1" arrows="1" fold="1" pageScale="1" pageWidth="827" pageHeight="1169" math="0" shadow="0">
      <root>
        <mxCell id="0" />
        <mxCell id="1" parent="0" />
        <mxCell id="dcLd7VKPpkcSfmznZBT6-2" value="&lt;h1 style=&quot;margin-top: 0px;&quot;&gt;&lt;span style=&quot;font-size: 10px;&quot;&gt;TRAMOS&lt;/span&gt;&lt;/h1&gt;&lt;p&gt;&lt;font style=&quot;font-size: 10px;&quot;&gt;- Id tramo (int)*&lt;/font&gt;&lt;/p&gt;&lt;p&gt;&lt;font style=&quot;font-size: 10px;&quot;&gt;- Clave foránea id Carretera (int)&amp;nbsp;&lt;/font&gt;&lt;/p&gt;&lt;p&gt;&lt;font style=&quot;font-size: 10px;&quot;&gt;- Kilometro inicio de tramo (float)&lt;/font&gt;&lt;/p&gt;&lt;p&gt;&lt;font style=&quot;font-size: 10px;&quot;&gt;- Kilometro fin de tramo (float)&lt;/font&gt;&lt;/p&gt;&lt;p&gt;&lt;font style=&quot;font-size: 10px;&quot;&gt;-&amp;nbsp;&lt;/font&gt;&lt;/p&gt;" style="text;html=1;whiteSpace=wrap;overflow=hidden;rounded=0;" vertex="1" parent="1">
          <mxGeometry x="220" y="130" width="180" height="200" as="geometry" />
        </mxCell>
        <mxCell id="dcLd7VKPpkcSfmznZBT6-5" value="&lt;h1 style=&quot;margin-top: 0px;&quot;&gt;&lt;font style=&quot;font-size: 10px;&quot;&gt;&amp;nbsp;CATEGORÍA DE CARRETERAS&lt;/font&gt;&lt;/h1&gt;&lt;p&gt;&lt;font style=&quot;font-size: 10px;&quot;&gt;- Id categoría de carreteras (int)*&lt;/font&gt;&lt;/p&gt;&lt;p&gt;&lt;font style=&quot;font-size: 10px;&quot;&gt;- Locales (char)&lt;/font&gt;&lt;/p&gt;&lt;p&gt;&lt;font style=&quot;font-size: 10px;&quot;&gt;- Comerciales&amp;nbsp;&lt;/font&gt;&lt;span style=&quot;font-size: 10px; background-color: initial;&quot;&gt;(char)&lt;/span&gt;&lt;/p&gt;&lt;p&gt;&lt;font style=&quot;font-size: 10px;&quot;&gt;- Regionales&amp;nbsp;&lt;/font&gt;&lt;span style=&quot;font-size: 10px; background-color: initial;&quot;&gt;(char)&lt;/span&gt;&lt;/p&gt;&lt;p&gt;&lt;font style=&quot;font-size: 10px;&quot;&gt;- Autovias&amp;nbsp;&lt;/font&gt;&lt;span style=&quot;font-size: 10px; background-color: initial;&quot;&gt;(char)&lt;/span&gt;&lt;/p&gt;&lt;p&gt;&lt;font style=&quot;font-size: 10px;&quot;&gt;- Nacionales&amp;nbsp;&lt;/font&gt;&lt;span style=&quot;font-size: 10px; background-color: initial;&quot;&gt;(char)&lt;/span&gt;&lt;/p&gt;&lt;p&gt;&lt;br&gt;&lt;/p&gt;" style="text;html=1;whiteSpace=wrap;overflow=hidden;rounded=0;" vertex="1" parent="1">
          <mxGeometry x="40" y="130" width="180" height="200" as="geometry" />
        </mxCell>
        <mxCell id="dcLd7VKPpkcSfmznZBT6-6" value="&lt;h1 style=&quot;margin-top: 0px;&quot;&gt;&lt;span style=&quot;font-size: 10px;&quot;&gt;COMUNAS&lt;/span&gt;&lt;/h1&gt;&lt;p&gt;&lt;font style=&quot;font-size: 10px;&quot;&gt;- Id comuna (int)*&lt;/font&gt;&lt;/p&gt;&lt;p&gt;&lt;font style=&quot;font-size: 10px;&quot;&gt;- Nombre de la comuna (char)&lt;br&gt;&lt;/font&gt;&lt;/p&gt;&lt;p&gt;&lt;font style=&quot;font-size: 10px;&quot;&gt;- Región de la comuna (char)&lt;/font&gt;&lt;/p&gt;" style="text;html=1;whiteSpace=wrap;overflow=hidden;rounded=0;" vertex="1" parent="1">
          <mxGeometry x="390" y="130" width="180" height="220" as="geometry" />
        </mxCell>
        <mxCell id="9oruSeUtXmhuWEmjVlGV-1" value="&lt;h1 style=&quot;margin-top: 0px;&quot;&gt;&lt;span style=&quot;font-size: 10px;&quot;&gt;CARRETERAS&lt;/span&gt;&lt;/h1&gt;&lt;p&gt;&lt;font style=&quot;font-size: 10px;&quot;&gt;- Id carretera (int)*&lt;/font&gt;&lt;/p&gt;&lt;p&gt;&lt;font style=&quot;font-size: 10px;&quot;&gt;- Nombre de la carretera (char)&lt;/font&gt;&lt;/p&gt;&lt;p&gt;&lt;font style=&quot;font-size: 10px;&quot;&gt;- Longitud de la carretera (float)&lt;/font&gt;&lt;/p&gt;&lt;p&gt;&lt;font style=&quot;font-size: 10px;&quot;&gt;-&amp;nbsp;&lt;/font&gt;&lt;/p&gt;" style="text;html=1;whiteSpace=wrap;overflow=hidden;rounded=0;" vertex="1" parent="1">
          <mxGeometry x="580" y="130" width="180" height="220" as="geometry" />
        </mxCell>
        <mxCell id="9oruSeUtXmhuWEmjVlGV-2" value="&lt;h1 style=&quot;margin-top: 0px;&quot;&gt;&lt;span style=&quot;font-size: 10px;&quot;&gt;Comuna - Tramo (TI)&lt;/span&gt;&lt;/h1&gt;&lt;p&gt;&lt;font style=&quot;font-size: 10px;&quot;&gt;- Conexión (Booleano que indique si termina la carretera o si tiene unión con otra)&lt;span style=&quot;white-space: pre;&quot;&gt;&#x9;&lt;/span&gt;&lt;/font&gt;&lt;/p&gt;&lt;p&gt;&lt;font style=&quot;font-size: 10px;&quot;&gt;- Inicio tramo (Comuna)&amp;nbsp;&lt;/font&gt;&lt;/p&gt;&lt;p&gt;&lt;font style=&quot;font-size: 10px;&quot;&gt;- Fin de tramo&amp;nbsp;&lt;/font&gt;&lt;span style=&quot;font-size: 10px; background-color: initial;&quot;&gt;(Comuna)&lt;/span&gt;&lt;/p&gt;&lt;p&gt;&lt;font style=&quot;font-size: 10px;&quot;&gt;- Intersección de vías&amp;nbsp;&lt;/font&gt;&lt;/p&gt;&lt;p&gt;&lt;span style=&quot;font-size: 10px;&quot;&gt;Clave foránea id carretera, id comuna, id tramo.&lt;/span&gt;&lt;/p&gt;" style="text;html=1;whiteSpace=wrap;overflow=hidden;rounded=0;" vertex="1" parent="1">
          <mxGeometry x="770" y="130" width="180" height="220" as="geometry" />
        </mxCell>
        <mxCell id="9oruSeUtXmhuWEmjVlGV-7" style="edgeStyle=orthogonalEdgeStyle;rounded=0;orthogonalLoop=1;jettySize=auto;html=1;exitX=0.5;exitY=0;exitDx=0;exitDy=0;entryX=0.5;entryY=1;entryDx=0;entryDy=0;" edge="1" parent="1" source="9oruSeUtXmhuWEmjVlGV-3" target="9oruSeUtXmhuWEmjVlGV-4">
          <mxGeometry relative="1" as="geometry">
            <mxPoint x="260" y="510" as="targetPoint" />
          </mxGeometry>
        </mxCell>
        <mxCell id="9oruSeUtXmhuWEmjVlGV-21" value="1:N" style="edgeLabel;html=1;align=center;verticalAlign=middle;resizable=0;points=[];" connectable="0" vertex="1" parent="9oruSeUtXmhuWEmjVlGV-7">
          <mxGeometry x="0.0667" y="-1" relative="1" as="geometry">
            <mxPoint as="offset" />
          </mxGeometry>
        </mxCell>
        <mxCell id="9oruSeUtXmhuWEmjVlGV-11" style="edgeStyle=orthogonalEdgeStyle;rounded=0;orthogonalLoop=1;jettySize=auto;html=1;entryX=1;entryY=0.5;entryDx=0;entryDy=0;" edge="1" parent="1" source="9oruSeUtXmhuWEmjVlGV-3" target="9oruSeUtXmhuWEmjVlGV-5">
          <mxGeometry relative="1" as="geometry">
            <mxPoint x="260" y="720" as="targetPoint" />
            <Array as="points">
              <mxPoint x="370" y="820" />
            </Array>
          </mxGeometry>
        </mxCell>
        <mxCell id="9oruSeUtXmhuWEmjVlGV-12" value="N:M" style="edgeLabel;html=1;align=center;verticalAlign=middle;resizable=0;points=[];" connectable="0" vertex="1" parent="9oruSeUtXmhuWEmjVlGV-11">
          <mxGeometry x="-0.4178" relative="1" as="geometry">
            <mxPoint as="offset" />
          </mxGeometry>
        </mxCell>
        <mxCell id="9oruSeUtXmhuWEmjVlGV-45" style="edgeStyle=orthogonalEdgeStyle;rounded=0;orthogonalLoop=1;jettySize=auto;html=1;exitX=1;exitY=0.25;exitDx=0;exitDy=0;" edge="1" parent="1" source="9oruSeUtXmhuWEmjVlGV-3" target="9oruSeUtXmhuWEmjVlGV-46">
          <mxGeometry relative="1" as="geometry">
            <mxPoint x="240" y="600" as="targetPoint" />
          </mxGeometry>
        </mxCell>
        <mxCell id="9oruSeUtXmhuWEmjVlGV-47" style="edgeStyle=orthogonalEdgeStyle;rounded=0;orthogonalLoop=1;jettySize=auto;html=1;exitX=1;exitY=0.75;exitDx=0;exitDy=0;entryX=0;entryY=0.5;entryDx=0;entryDy=0;" edge="1" parent="1" source="9oruSeUtXmhuWEmjVlGV-3" target="9oruSeUtXmhuWEmjVlGV-48">
          <mxGeometry relative="1" as="geometry">
            <mxPoint x="480" y="645" as="targetPoint" />
          </mxGeometry>
        </mxCell>
        <mxCell id="9oruSeUtXmhuWEmjVlGV-49" style="edgeStyle=orthogonalEdgeStyle;rounded=0;orthogonalLoop=1;jettySize=auto;html=1;exitX=0.75;exitY=1;exitDx=0;exitDy=0;" edge="1" parent="1" source="9oruSeUtXmhuWEmjVlGV-3" target="9oruSeUtXmhuWEmjVlGV-50">
          <mxGeometry relative="1" as="geometry">
            <mxPoint x="470" y="710" as="targetPoint" />
            <Array as="points">
              <mxPoint x="400" y="680" />
            </Array>
          </mxGeometry>
        </mxCell>
        <mxCell id="9oruSeUtXmhuWEmjVlGV-51" style="edgeStyle=orthogonalEdgeStyle;rounded=0;orthogonalLoop=1;jettySize=auto;html=1;exitX=0;exitY=0.25;exitDx=0;exitDy=0;" edge="1" parent="1" source="9oruSeUtXmhuWEmjVlGV-3" target="9oruSeUtXmhuWEmjVlGV-52">
          <mxGeometry relative="1" as="geometry">
            <mxPoint x="220" y="600" as="targetPoint" />
          </mxGeometry>
        </mxCell>
        <mxCell id="9oruSeUtXmhuWEmjVlGV-3" value="TRAMOS" style="rounded=0;whiteSpace=wrap;html=1;" vertex="1" parent="1">
          <mxGeometry x="310" y="600" width="120" height="60" as="geometry" />
        </mxCell>
        <mxCell id="9oruSeUtXmhuWEmjVlGV-18" style="edgeStyle=orthogonalEdgeStyle;rounded=0;orthogonalLoop=1;jettySize=auto;html=1;exitX=1;exitY=0.5;exitDx=0;exitDy=0;entryX=0;entryY=0.5;entryDx=0;entryDy=0;" edge="1" parent="1" source="9oruSeUtXmhuWEmjVlGV-4" target="9oruSeUtXmhuWEmjVlGV-6">
          <mxGeometry relative="1" as="geometry">
            <mxPoint x="380" y="490" as="targetPoint" />
          </mxGeometry>
        </mxCell>
        <mxCell id="9oruSeUtXmhuWEmjVlGV-19" value="1:1" style="edgeLabel;html=1;align=center;verticalAlign=middle;resizable=0;points=[];" connectable="0" vertex="1" parent="9oruSeUtXmhuWEmjVlGV-18">
          <mxGeometry x="-0.0667" y="-1" relative="1" as="geometry">
            <mxPoint as="offset" />
          </mxGeometry>
        </mxCell>
        <mxCell id="9oruSeUtXmhuWEmjVlGV-29" style="edgeStyle=orthogonalEdgeStyle;rounded=0;orthogonalLoop=1;jettySize=auto;html=1;exitX=0.5;exitY=0;exitDx=0;exitDy=0;entryX=0.5;entryY=1;entryDx=0;entryDy=0;" edge="1" parent="1" source="9oruSeUtXmhuWEmjVlGV-4" target="9oruSeUtXmhuWEmjVlGV-28">
          <mxGeometry relative="1" as="geometry" />
        </mxCell>
        <mxCell id="9oruSeUtXmhuWEmjVlGV-4" value="CARRETERAS" style="rounded=0;whiteSpace=wrap;html=1;" vertex="1" parent="1">
          <mxGeometry x="190" y="460" width="120" height="60" as="geometry" />
        </mxCell>
        <mxCell id="9oruSeUtXmhuWEmjVlGV-53" style="edgeStyle=orthogonalEdgeStyle;rounded=0;orthogonalLoop=1;jettySize=auto;html=1;exitX=0;exitY=0.25;exitDx=0;exitDy=0;" edge="1" parent="1" source="9oruSeUtXmhuWEmjVlGV-5" target="9oruSeUtXmhuWEmjVlGV-54">
          <mxGeometry relative="1" as="geometry">
            <mxPoint x="200" y="740" as="targetPoint" />
          </mxGeometry>
        </mxCell>
        <mxCell id="9oruSeUtXmhuWEmjVlGV-55" style="edgeStyle=orthogonalEdgeStyle;rounded=0;orthogonalLoop=1;jettySize=auto;html=1;exitX=0;exitY=0.75;exitDx=0;exitDy=0;" edge="1" parent="1" source="9oruSeUtXmhuWEmjVlGV-5" target="9oruSeUtXmhuWEmjVlGV-56">
          <mxGeometry relative="1" as="geometry">
            <mxPoint x="130" y="850" as="targetPoint" />
          </mxGeometry>
        </mxCell>
        <mxCell id="9oruSeUtXmhuWEmjVlGV-57" style="edgeStyle=orthogonalEdgeStyle;rounded=0;orthogonalLoop=1;jettySize=auto;html=1;exitX=0.25;exitY=1;exitDx=0;exitDy=0;" edge="1" parent="1" source="9oruSeUtXmhuWEmjVlGV-5" target="9oruSeUtXmhuWEmjVlGV-58">
          <mxGeometry relative="1" as="geometry">
            <mxPoint x="190" y="900" as="targetPoint" />
          </mxGeometry>
        </mxCell>
        <mxCell id="9oruSeUtXmhuWEmjVlGV-5" value="COMUNAS" style="rounded=0;whiteSpace=wrap;html=1;" vertex="1" parent="1">
          <mxGeometry x="180" y="790" width="120" height="60" as="geometry" />
        </mxCell>
        <mxCell id="9oruSeUtXmhuWEmjVlGV-32" style="edgeStyle=orthogonalEdgeStyle;rounded=0;orthogonalLoop=1;jettySize=auto;html=1;exitX=0.25;exitY=0;exitDx=0;exitDy=0;" edge="1" parent="1" source="9oruSeUtXmhuWEmjVlGV-6" target="9oruSeUtXmhuWEmjVlGV-33">
          <mxGeometry relative="1" as="geometry">
            <mxPoint x="430" y="420" as="targetPoint" />
            <Array as="points">
              <mxPoint x="490" y="450" />
              <mxPoint x="430" y="450" />
            </Array>
          </mxGeometry>
        </mxCell>
        <mxCell id="9oruSeUtXmhuWEmjVlGV-34" style="edgeStyle=orthogonalEdgeStyle;rounded=0;orthogonalLoop=1;jettySize=auto;html=1;exitX=0.5;exitY=0;exitDx=0;exitDy=0;" edge="1" parent="1" source="9oruSeUtXmhuWEmjVlGV-6" target="9oruSeUtXmhuWEmjVlGV-35">
          <mxGeometry relative="1" as="geometry">
            <mxPoint x="500" y="400" as="targetPoint" />
          </mxGeometry>
        </mxCell>
        <mxCell id="9oruSeUtXmhuWEmjVlGV-36" style="edgeStyle=orthogonalEdgeStyle;rounded=0;orthogonalLoop=1;jettySize=auto;html=1;exitX=0.75;exitY=0;exitDx=0;exitDy=0;" edge="1" parent="1" source="9oruSeUtXmhuWEmjVlGV-6" target="9oruSeUtXmhuWEmjVlGV-37">
          <mxGeometry relative="1" as="geometry">
            <mxPoint x="540" y="410" as="targetPoint" />
            <Array as="points">
              <mxPoint x="550" y="420" />
              <mxPoint x="550" y="420" />
            </Array>
          </mxGeometry>
        </mxCell>
        <mxCell id="9oruSeUtXmhuWEmjVlGV-38" style="edgeStyle=orthogonalEdgeStyle;rounded=0;orthogonalLoop=1;jettySize=auto;html=1;exitX=1;exitY=0;exitDx=0;exitDy=0;" edge="1" parent="1" source="9oruSeUtXmhuWEmjVlGV-6" target="9oruSeUtXmhuWEmjVlGV-39">
          <mxGeometry relative="1" as="geometry">
            <mxPoint x="630" y="410" as="targetPoint" />
          </mxGeometry>
        </mxCell>
        <mxCell id="9oruSeUtXmhuWEmjVlGV-41" style="edgeStyle=orthogonalEdgeStyle;rounded=0;orthogonalLoop=1;jettySize=auto;html=1;exitX=1;exitY=0.25;exitDx=0;exitDy=0;" edge="1" parent="1" source="9oruSeUtXmhuWEmjVlGV-6" target="9oruSeUtXmhuWEmjVlGV-42">
          <mxGeometry relative="1" as="geometry">
            <mxPoint x="640" y="450" as="targetPoint" />
            <Array as="points">
              <mxPoint x="621" y="475" />
            </Array>
          </mxGeometry>
        </mxCell>
        <mxCell id="9oruSeUtXmhuWEmjVlGV-43" style="edgeStyle=orthogonalEdgeStyle;rounded=0;orthogonalLoop=1;jettySize=auto;html=1;exitX=1;exitY=0.75;exitDx=0;exitDy=0;" edge="1" parent="1" source="9oruSeUtXmhuWEmjVlGV-6" target="9oruSeUtXmhuWEmjVlGV-44">
          <mxGeometry relative="1" as="geometry">
            <mxPoint x="640" y="505" as="targetPoint" />
          </mxGeometry>
        </mxCell>
        <mxCell id="9oruSeUtXmhuWEmjVlGV-6" value="CATEGORÍAS DE CARRETERAS" style="rounded=0;whiteSpace=wrap;html=1;" vertex="1" parent="1">
          <mxGeometry x="460" y="460" width="120" height="60" as="geometry" />
        </mxCell>
        <mxCell id="9oruSeUtXmhuWEmjVlGV-15" value="" style="endArrow=classic;html=1;rounded=0;" edge="1" parent="1">
          <mxGeometry width="50" height="50" relative="1" as="geometry">
            <mxPoint x="380" y="730" as="sourcePoint" />
            <mxPoint x="480" y="780" as="targetPoint" />
          </mxGeometry>
        </mxCell>
        <mxCell id="9oruSeUtXmhuWEmjVlGV-17" value="TI" style="edgeLabel;html=1;align=center;verticalAlign=middle;resizable=0;points=[];" connectable="0" vertex="1" parent="9oruSeUtXmhuWEmjVlGV-15">
          <mxGeometry x="0.0293" y="1" relative="1" as="geometry">
            <mxPoint as="offset" />
          </mxGeometry>
        </mxCell>
        <mxCell id="9oruSeUtXmhuWEmjVlGV-16" value="TRAMO-COMUNA" style="ellipse;whiteSpace=wrap;html=1;" vertex="1" parent="1">
          <mxGeometry x="480" y="750" width="120" height="80" as="geometry" />
        </mxCell>
        <mxCell id="9oruSeUtXmhuWEmjVlGV-24" value="Id carretera*" style="ellipse;whiteSpace=wrap;html=1;" vertex="1" parent="1">
          <mxGeometry x="60" y="450" width="110" height="60" as="geometry" />
        </mxCell>
        <mxCell id="9oruSeUtXmhuWEmjVlGV-25" style="edgeStyle=orthogonalEdgeStyle;rounded=0;orthogonalLoop=1;jettySize=auto;html=1;entryX=0.739;entryY=0.944;entryDx=0;entryDy=0;entryPerimeter=0;" edge="1" parent="1" source="9oruSeUtXmhuWEmjVlGV-4" target="9oruSeUtXmhuWEmjVlGV-24">
          <mxGeometry relative="1" as="geometry">
            <Array as="points">
              <mxPoint x="180" y="490" />
              <mxPoint x="180" y="507" />
            </Array>
          </mxGeometry>
        </mxCell>
        <mxCell id="9oruSeUtXmhuWEmjVlGV-26" value="Nombre de la carretera" style="ellipse;whiteSpace=wrap;html=1;" vertex="1" parent="1">
          <mxGeometry x="90" y="380" width="110" height="60" as="geometry" />
        </mxCell>
        <mxCell id="9oruSeUtXmhuWEmjVlGV-27" style="edgeStyle=orthogonalEdgeStyle;rounded=0;orthogonalLoop=1;jettySize=auto;html=1;exitX=0;exitY=0;exitDx=0;exitDy=0;entryX=0.582;entryY=0.967;entryDx=0;entryDy=0;entryPerimeter=0;" edge="1" parent="1" source="9oruSeUtXmhuWEmjVlGV-4" target="9oruSeUtXmhuWEmjVlGV-26">
          <mxGeometry relative="1" as="geometry">
            <Array as="points">
              <mxPoint x="190" y="450" />
              <mxPoint x="154" y="450" />
            </Array>
          </mxGeometry>
        </mxCell>
        <mxCell id="9oruSeUtXmhuWEmjVlGV-28" value="Longitud de la carretera" style="ellipse;whiteSpace=wrap;html=1;" vertex="1" parent="1">
          <mxGeometry x="210" y="370" width="110" height="60" as="geometry" />
        </mxCell>
        <mxCell id="9oruSeUtXmhuWEmjVlGV-33" value="Id categoría de carreteras*" style="ellipse;whiteSpace=wrap;html=1;" vertex="1" parent="1">
          <mxGeometry x="380" y="370" width="100" height="55" as="geometry" />
        </mxCell>
        <mxCell id="9oruSeUtXmhuWEmjVlGV-35" value="Local" style="ellipse;whiteSpace=wrap;html=1;" vertex="1" parent="1">
          <mxGeometry x="440" y="320" width="100" height="50" as="geometry" />
        </mxCell>
        <mxCell id="9oruSeUtXmhuWEmjVlGV-37" value="Comercial" style="ellipse;whiteSpace=wrap;html=1;" vertex="1" parent="1">
          <mxGeometry x="510" y="360" width="90" height="50" as="geometry" />
        </mxCell>
        <mxCell id="9oruSeUtXmhuWEmjVlGV-39" value="Regional" style="ellipse;whiteSpace=wrap;html=1;" vertex="1" parent="1">
          <mxGeometry x="570" y="320" width="90" height="50" as="geometry" />
        </mxCell>
        <mxCell id="9oruSeUtXmhuWEmjVlGV-42" value="Autovias" style="ellipse;whiteSpace=wrap;html=1;" vertex="1" parent="1">
          <mxGeometry x="640" y="390" width="90" height="50" as="geometry" />
        </mxCell>
        <mxCell id="9oruSeUtXmhuWEmjVlGV-44" value="Nacional" style="ellipse;whiteSpace=wrap;html=1;" vertex="1" parent="1">
          <mxGeometry x="632.5" y="460" width="105" height="55" as="geometry" />
        </mxCell>
        <mxCell id="9oruSeUtXmhuWEmjVlGV-46" value="Id tramo*" style="ellipse;whiteSpace=wrap;html=1;" vertex="1" parent="1">
          <mxGeometry x="480" y="560" width="100" height="50" as="geometry" />
        </mxCell>
        <mxCell id="9oruSeUtXmhuWEmjVlGV-48" value="Km inicio de tramo" style="ellipse;whiteSpace=wrap;html=1;" vertex="1" parent="1">
          <mxGeometry x="480" y="620" width="100" height="50" as="geometry" />
        </mxCell>
        <mxCell id="9oruSeUtXmhuWEmjVlGV-50" value="Km fin de tramo" style="ellipse;whiteSpace=wrap;html=1;" vertex="1" parent="1">
          <mxGeometry x="430" y="690" width="90" height="50" as="geometry" />
        </mxCell>
        <mxCell id="9oruSeUtXmhuWEmjVlGV-52" value="Cf carreteras" style="ellipse;whiteSpace=wrap;html=1;" vertex="1" parent="1">
          <mxGeometry x="220" y="605" width="60" height="50" as="geometry" />
        </mxCell>
        <mxCell id="9oruSeUtXmhuWEmjVlGV-54" value="Id comuna*" style="ellipse;whiteSpace=wrap;html=1;" vertex="1" parent="1">
          <mxGeometry x="60" y="740" width="80" height="50" as="geometry" />
        </mxCell>
        <mxCell id="9oruSeUtXmhuWEmjVlGV-56" value="Nombre de la comuna" style="ellipse;whiteSpace=wrap;html=1;" vertex="1" parent="1">
          <mxGeometry x="60" y="820" width="80" height="50" as="geometry" />
        </mxCell>
        <mxCell id="9oruSeUtXmhuWEmjVlGV-58" value="Region de la&amp;nbsp; comuna" style="ellipse;whiteSpace=wrap;html=1;" vertex="1" parent="1">
          <mxGeometry x="140" y="890" width="90" height="50" as="geometry" />
        </mxCell>
      </root>
    </mxGraphModel>
  </diagram>
</mxfile>
